<mxfile host="app.diagrams.net" modified="2023-08-12T15:20:46.946Z" agent="Mozilla/5.0 (Macintosh; Intel Mac OS X 10_15_7) AppleWebKit/537.36 (KHTML, like Gecko) Chrome/115.0.0.0 Safari/537.36" etag="FrLF_7-0HCots_WPjw1M" version="21.6.8" type="device">
  <diagram name="Page-1" id="zQsiYJT7AfYwqJ-RAqQW">
    <mxGraphModel dx="1488" dy="774" grid="1" gridSize="10" guides="1" tooltips="1" connect="1" arrows="1" fold="1" page="1" pageScale="1" pageWidth="850" pageHeight="1100" math="0" shadow="0">
      <root>
        <mxCell id="0" />
        <mxCell id="1" parent="0" />
        <mxCell id="P7TTwvXeHNKkOv4dfcsk-147" value="" style="edgeStyle=none;orthogonalLoop=1;jettySize=auto;html=1;rounded=1;labelBackgroundColor=default;strokeColor=#000000;fontFamily=Helvetica;fontSize=11;fontColor=default;endArrow=none;endFill=0;fillColor=none;gradientColor=default;shape=connector;entryX=0.5;entryY=0;entryDx=0;entryDy=0;" edge="1" parent="1" target="P7TTwvXeHNKkOv4dfcsk-133">
          <mxGeometry width="80" relative="1" as="geometry">
            <mxPoint x="800" y="400" as="sourcePoint" />
            <mxPoint x="880" y="400" as="targetPoint" />
            <Array as="points" />
          </mxGeometry>
        </mxCell>
        <mxCell id="P7TTwvXeHNKkOv4dfcsk-24" value="categoria" style="whiteSpace=wrap;html=1;fontFamily=Helvetica;fontSize=11;fontColor=default;" vertex="1" parent="1">
          <mxGeometry x="450" y="200" width="120" height="60" as="geometry" />
        </mxCell>
        <mxCell id="P7TTwvXeHNKkOv4dfcsk-25" value="prodotto" style="whiteSpace=wrap;html=1;fontFamily=Helvetica;fontSize=11;fontColor=default;" vertex="1" parent="1">
          <mxGeometry x="220" y="200" width="120" height="60" as="geometry" />
        </mxCell>
        <mxCell id="P7TTwvXeHNKkOv4dfcsk-26" value="dettagli ordine" style="whiteSpace=wrap;html=1;fontFamily=Helvetica;fontSize=11;fontColor=default;" vertex="1" parent="1">
          <mxGeometry x="520" y="460" width="120" height="60" as="geometry" />
        </mxCell>
        <mxCell id="P7TTwvXeHNKkOv4dfcsk-27" value="oggetto selezionato" style="whiteSpace=wrap;html=1;fontFamily=Helvetica;fontSize=11;fontColor=default;" vertex="1" parent="1">
          <mxGeometry x="220" y="340" width="120" height="60" as="geometry" />
        </mxCell>
        <mxCell id="P7TTwvXeHNKkOv4dfcsk-29" value="carrello" style="whiteSpace=wrap;html=1;fontFamily=Helvetica;fontSize=11;fontColor=default;" vertex="1" parent="1">
          <mxGeometry x="360" y="460" width="120" height="60" as="geometry" />
        </mxCell>
        <mxCell id="P7TTwvXeHNKkOv4dfcsk-30" value="" style="edgeStyle=none;orthogonalLoop=1;jettySize=auto;html=1;rounded=0;labelBackgroundColor=default;strokeColor=default;fontFamily=Helvetica;fontSize=11;fontColor=default;endArrow=none;endFill=0;shape=connector;exitX=0.5;exitY=0;exitDx=0;exitDy=0;" edge="1" parent="1" source="P7TTwvXeHNKkOv4dfcsk-29">
          <mxGeometry width="80" relative="1" as="geometry">
            <mxPoint x="410" y="460" as="sourcePoint" />
            <mxPoint x="420" y="440" as="targetPoint" />
            <Array as="points" />
          </mxGeometry>
        </mxCell>
        <mxCell id="P7TTwvXeHNKkOv4dfcsk-31" value="" style="edgeStyle=none;orthogonalLoop=1;jettySize=auto;html=1;rounded=0;labelBackgroundColor=default;strokeColor=default;fontFamily=Helvetica;fontSize=11;fontColor=default;endArrow=none;endFill=0;shape=connector;exitX=0.5;exitY=0;exitDx=0;exitDy=0;" edge="1" parent="1" source="P7TTwvXeHNKkOv4dfcsk-26">
          <mxGeometry width="80" relative="1" as="geometry">
            <mxPoint x="610" y="440" as="sourcePoint" />
            <mxPoint x="579.66" y="440" as="targetPoint" />
            <Array as="points" />
          </mxGeometry>
        </mxCell>
        <mxCell id="P7TTwvXeHNKkOv4dfcsk-32" value="" style="edgeStyle=none;orthogonalLoop=1;jettySize=auto;html=1;rounded=0;labelBackgroundColor=default;strokeColor=default;fontFamily=Helvetica;fontSize=11;fontColor=default;endArrow=none;endFill=0;shape=connector;" edge="1" parent="1">
          <mxGeometry width="80" relative="1" as="geometry">
            <mxPoint x="420" y="440" as="sourcePoint" />
            <mxPoint x="580" y="440" as="targetPoint" />
            <Array as="points" />
          </mxGeometry>
        </mxCell>
        <mxCell id="P7TTwvXeHNKkOv4dfcsk-33" value="" style="shape=flexArrow;endArrow=classic;html=1;rounded=0;labelBackgroundColor=default;fontFamily=Helvetica;fontSize=11;fontColor=default;fillColor=#000000;strokeColor=#001DBC;gradientColor=default;entryX=0.5;entryY=1;entryDx=0;entryDy=0;" edge="1" parent="1" target="P7TTwvXeHNKkOv4dfcsk-34">
          <mxGeometry width="50" height="50" relative="1" as="geometry">
            <mxPoint x="500" y="440" as="sourcePoint" />
            <mxPoint x="500" y="420" as="targetPoint" />
          </mxGeometry>
        </mxCell>
        <mxCell id="P7TTwvXeHNKkOv4dfcsk-34" value="lista" style="whiteSpace=wrap;html=1;fontFamily=Helvetica;fontSize=11;fontColor=default;" vertex="1" parent="1">
          <mxGeometry x="440" y="340" width="120" height="60" as="geometry" />
        </mxCell>
        <mxCell id="P7TTwvXeHNKkOv4dfcsk-38" value="" style="endArrow=none;html=1;rounded=0;labelBackgroundColor=default;strokeColor=#000000;fontFamily=Helvetica;fontSize=11;fontColor=default;fillColor=none;gradientColor=default;exitX=1;exitY=0.5;exitDx=0;exitDy=0;entryX=0;entryY=0.5;entryDx=0;entryDy=0;" edge="1" parent="1" source="P7TTwvXeHNKkOv4dfcsk-27" target="P7TTwvXeHNKkOv4dfcsk-34">
          <mxGeometry width="50" height="50" relative="1" as="geometry">
            <mxPoint x="430" y="380" as="sourcePoint" />
            <mxPoint x="480" y="330" as="targetPoint" />
          </mxGeometry>
        </mxCell>
        <mxCell id="P7TTwvXeHNKkOv4dfcsk-39" value="user" style="whiteSpace=wrap;html=1;fontFamily=Helvetica;fontSize=11;fontColor=default;" vertex="1" parent="1">
          <mxGeometry x="740" y="340" width="120" height="60" as="geometry" />
        </mxCell>
        <mxCell id="P7TTwvXeHNKkOv4dfcsk-40" value="" style="edgeStyle=none;orthogonalLoop=1;jettySize=auto;html=1;rounded=0;labelBackgroundColor=default;strokeColor=#000000;fontFamily=Helvetica;fontSize=11;fontColor=default;endArrow=none;fillColor=none;gradientColor=default;shape=connector;entryX=0;entryY=0.5;entryDx=0;entryDy=0;exitX=1;exitY=0.5;exitDx=0;exitDy=0;" edge="1" parent="1" source="P7TTwvXeHNKkOv4dfcsk-34" target="P7TTwvXeHNKkOv4dfcsk-39">
          <mxGeometry width="80" relative="1" as="geometry">
            <mxPoint x="610" y="310" as="sourcePoint" />
            <mxPoint x="690" y="370" as="targetPoint" />
            <Array as="points" />
          </mxGeometry>
        </mxCell>
        <mxCell id="P7TTwvXeHNKkOv4dfcsk-41" style="edgeStyle=none;shape=connector;rounded=0;orthogonalLoop=1;jettySize=auto;html=1;entryX=0;entryY=0.5;entryDx=0;entryDy=0;labelBackgroundColor=default;strokeColor=#001DBC;fontFamily=Helvetica;fontSize=11;fontColor=default;endArrow=none;fillColor=none;gradientColor=default;" edge="1" parent="1" source="P7TTwvXeHNKkOv4dfcsk-39" target="P7TTwvXeHNKkOv4dfcsk-39">
          <mxGeometry relative="1" as="geometry" />
        </mxCell>
        <mxCell id="P7TTwvXeHNKkOv4dfcsk-42" style="edgeStyle=none;shape=connector;rounded=0;orthogonalLoop=1;jettySize=auto;html=1;exitX=0.75;exitY=0;exitDx=0;exitDy=0;entryX=0.583;entryY=0.004;entryDx=0;entryDy=0;entryPerimeter=0;labelBackgroundColor=default;strokeColor=#000000;fontFamily=Helvetica;fontSize=11;fontColor=default;endArrow=none;fillColor=none;gradientColor=default;" edge="1" parent="1" source="P7TTwvXeHNKkOv4dfcsk-39" target="P7TTwvXeHNKkOv4dfcsk-39">
          <mxGeometry relative="1" as="geometry" />
        </mxCell>
        <mxCell id="P7TTwvXeHNKkOv4dfcsk-47" value="contenuto" style="rhombus;whiteSpace=wrap;html=1;fontFamily=Helvetica;fontSize=11;fontColor=default;" vertex="1" parent="1">
          <mxGeometry x="360" y="340" width="60" height="60" as="geometry" />
        </mxCell>
        <mxCell id="P7TTwvXeHNKkOv4dfcsk-48" value="" style="edgeStyle=none;orthogonalLoop=1;jettySize=auto;html=1;rounded=1;labelBackgroundColor=default;strokeColor=#000000;fontFamily=Helvetica;fontSize=11;fontColor=default;endArrow=oval;fillColor=none;gradientColor=default;shape=connector;endFill=1;" edge="1" parent="1">
          <mxGeometry width="80" relative="1" as="geometry">
            <mxPoint x="860" y="354.79" as="sourcePoint" />
            <mxPoint x="890" y="355" as="targetPoint" />
            <Array as="points" />
          </mxGeometry>
        </mxCell>
        <mxCell id="P7TTwvXeHNKkOv4dfcsk-51" value="nome" style="text;strokeColor=none;align=center;fillColor=none;html=1;verticalAlign=middle;whiteSpace=wrap;rounded=0;fontSize=11;fontFamily=Helvetica;fontColor=default;" vertex="1" parent="1">
          <mxGeometry x="885" y="370" width="60" height="30" as="geometry" />
        </mxCell>
        <mxCell id="P7TTwvXeHNKkOv4dfcsk-52" value="" style="edgeStyle=none;orthogonalLoop=1;jettySize=auto;html=1;rounded=1;labelBackgroundColor=default;strokeColor=#000000;fontFamily=Helvetica;fontSize=11;fontColor=default;endArrow=oval;fillColor=none;gradientColor=default;shape=connector;endFill=0;" edge="1" parent="1">
          <mxGeometry width="80" relative="1" as="geometry">
            <mxPoint x="860" y="370" as="sourcePoint" />
            <mxPoint x="890" y="370" as="targetPoint" />
            <Array as="points" />
          </mxGeometry>
        </mxCell>
        <mxCell id="P7TTwvXeHNKkOv4dfcsk-53" value="cognome&lt;br&gt;" style="text;strokeColor=none;align=center;fillColor=none;html=1;verticalAlign=middle;whiteSpace=wrap;rounded=0;fontSize=11;fontFamily=Helvetica;fontColor=default;" vertex="1" parent="1">
          <mxGeometry x="895" y="385" width="60" height="30" as="geometry" />
        </mxCell>
        <mxCell id="P7TTwvXeHNKkOv4dfcsk-54" value="" style="edgeStyle=none;orthogonalLoop=1;jettySize=auto;html=1;rounded=1;labelBackgroundColor=default;strokeColor=#000000;fontFamily=Helvetica;fontSize=11;fontColor=default;endArrow=oval;endFill=0;fillColor=none;gradientColor=default;shape=connector;" edge="1" parent="1">
          <mxGeometry width="80" relative="1" as="geometry">
            <mxPoint x="860" y="385" as="sourcePoint" />
            <mxPoint x="890" y="385" as="targetPoint" />
            <Array as="points" />
          </mxGeometry>
        </mxCell>
        <mxCell id="P7TTwvXeHNKkOv4dfcsk-55" value="email" style="text;strokeColor=none;align=center;fillColor=none;html=1;verticalAlign=middle;whiteSpace=wrap;rounded=0;fontSize=11;fontFamily=Helvetica;fontColor=default;" vertex="1" parent="1">
          <mxGeometry x="885" y="340" width="60" height="30" as="geometry" />
        </mxCell>
        <mxCell id="P7TTwvXeHNKkOv4dfcsk-56" value="" style="edgeStyle=none;orthogonalLoop=1;jettySize=auto;html=1;rounded=1;labelBackgroundColor=default;strokeColor=#000000;fontFamily=Helvetica;fontSize=11;fontColor=default;endArrow=oval;endFill=0;fillColor=none;gradientColor=default;shape=connector;" edge="1" parent="1">
          <mxGeometry width="80" relative="1" as="geometry">
            <mxPoint x="860" y="399.57" as="sourcePoint" />
            <mxPoint x="890" y="400" as="targetPoint" />
            <Array as="points">
              <mxPoint x="880" y="400" />
            </Array>
          </mxGeometry>
        </mxCell>
        <mxCell id="P7TTwvXeHNKkOv4dfcsk-57" value="password" style="text;strokeColor=none;align=center;fillColor=none;html=1;verticalAlign=middle;whiteSpace=wrap;rounded=0;fontSize=11;fontFamily=Helvetica;fontColor=default;" vertex="1" parent="1">
          <mxGeometry x="895" y="355" width="60" height="30" as="geometry" />
        </mxCell>
        <mxCell id="P7TTwvXeHNKkOv4dfcsk-64" value="via" style="text;strokeColor=none;align=center;fillColor=none;html=1;verticalAlign=middle;whiteSpace=wrap;rounded=0;fontSize=11;fontFamily=Helvetica;fontColor=default;" vertex="1" parent="1">
          <mxGeometry x="895" y="460" width="30" height="20" as="geometry" />
        </mxCell>
        <mxCell id="P7TTwvXeHNKkOv4dfcsk-66" value="numero civico" style="text;strokeColor=none;align=center;fillColor=none;html=1;verticalAlign=middle;whiteSpace=wrap;rounded=0;fontSize=11;fontFamily=Helvetica;fontColor=default;" vertex="1" parent="1">
          <mxGeometry x="895" y="480" width="80" height="20" as="geometry" />
        </mxCell>
        <mxCell id="P7TTwvXeHNKkOv4dfcsk-71" value="CAP" style="text;strokeColor=none;align=center;fillColor=none;html=1;verticalAlign=middle;whiteSpace=wrap;rounded=0;fontSize=11;fontFamily=Helvetica;fontColor=default;" vertex="1" parent="1">
          <mxGeometry x="830" y="550" width="40" height="30" as="geometry" />
        </mxCell>
        <mxCell id="P7TTwvXeHNKkOv4dfcsk-72" value="" style="edgeStyle=none;orthogonalLoop=1;jettySize=auto;html=1;rounded=1;labelBackgroundColor=default;strokeColor=#000000;fontFamily=Helvetica;fontSize=11;fontColor=default;endArrow=oval;endFill=0;fillColor=none;gradientColor=default;shape=connector;exitX=0.25;exitY=1;exitDx=0;exitDy=0;" edge="1" parent="1">
          <mxGeometry width="80" relative="1" as="geometry">
            <mxPoint x="810" y="495" as="sourcePoint" />
            <mxPoint x="810" y="550" as="targetPoint" />
            <Array as="points" />
          </mxGeometry>
        </mxCell>
        <mxCell id="P7TTwvXeHNKkOv4dfcsk-73" value="stato" style="text;strokeColor=none;align=center;fillColor=none;html=1;verticalAlign=middle;whiteSpace=wrap;rounded=0;fontSize=11;fontFamily=Helvetica;fontColor=default;" vertex="1" parent="1">
          <mxGeometry x="780" y="550" width="60" height="30" as="geometry" />
        </mxCell>
        <mxCell id="P7TTwvXeHNKkOv4dfcsk-75" value="città" style="text;strokeColor=none;align=center;fillColor=none;html=1;verticalAlign=middle;whiteSpace=wrap;rounded=0;fontSize=11;fontFamily=Helvetica;fontColor=default;" vertex="1" parent="1">
          <mxGeometry x="900" y="500" width="25" height="20" as="geometry" />
        </mxCell>
        <mxCell id="P7TTwvXeHNKkOv4dfcsk-76" style="edgeStyle=none;shape=connector;rounded=1;orthogonalLoop=1;jettySize=auto;html=1;exitX=1;exitY=0.5;exitDx=0;exitDy=0;labelBackgroundColor=default;strokeColor=#000000;fontFamily=Helvetica;fontSize=11;fontColor=default;endArrow=oval;endFill=0;fillColor=none;gradientColor=default;" edge="1" parent="1">
          <mxGeometry relative="1" as="geometry">
            <mxPoint x="885" y="417.5" as="sourcePoint" />
            <mxPoint x="885" y="417.5" as="targetPoint" />
          </mxGeometry>
        </mxCell>
        <mxCell id="P7TTwvXeHNKkOv4dfcsk-78" value="" style="edgeStyle=none;orthogonalLoop=1;jettySize=auto;html=1;rounded=1;labelBackgroundColor=default;strokeColor=#000000;fontFamily=Helvetica;fontSize=11;fontColor=default;endArrow=none;endFill=0;fillColor=none;gradientColor=default;shape=connector;exitX=0.5;exitY=0;exitDx=0;exitDy=0;entryX=0.5;entryY=1;entryDx=0;entryDy=0;" edge="1" parent="1" source="P7TTwvXeHNKkOv4dfcsk-132" target="P7TTwvXeHNKkOv4dfcsk-130">
          <mxGeometry width="80" relative="1" as="geometry">
            <mxPoint x="920" y="280" as="sourcePoint" />
            <mxPoint x="800" y="300" as="targetPoint" />
            <Array as="points" />
          </mxGeometry>
        </mxCell>
        <mxCell id="P7TTwvXeHNKkOv4dfcsk-90" value="&lt;br&gt;costo" style="text;strokeColor=none;align=center;fillColor=none;html=1;verticalAlign=middle;whiteSpace=wrap;rounded=0;fontSize=11;fontFamily=Helvetica;fontColor=default;" vertex="1" parent="1">
          <mxGeometry x="430" y="275" width="60" height="30" as="geometry" />
        </mxCell>
        <mxCell id="P7TTwvXeHNKkOv4dfcsk-91" value="data creazione" style="text;strokeColor=none;align=center;fillColor=none;html=1;verticalAlign=middle;whiteSpace=wrap;rounded=0;fontSize=11;fontFamily=Helvetica;fontColor=default;" vertex="1" parent="1">
          <mxGeometry x="580" y="340" width="70" height="30" as="geometry" />
        </mxCell>
        <mxCell id="P7TTwvXeHNKkOv4dfcsk-92" value="data modifica" style="text;strokeColor=none;align=center;fillColor=none;html=1;verticalAlign=middle;whiteSpace=wrap;rounded=0;fontSize=11;fontFamily=Helvetica;fontColor=default;" vertex="1" parent="1">
          <mxGeometry x="490" y="285" width="60" height="30" as="geometry" />
        </mxCell>
        <mxCell id="P7TTwvXeHNKkOv4dfcsk-93" value="" style="edgeStyle=none;orthogonalLoop=1;jettySize=auto;html=1;rounded=1;labelBackgroundColor=default;strokeColor=#000000;fontFamily=Helvetica;fontSize=11;fontColor=default;endArrow=oval;endFill=0;fillColor=none;gradientColor=default;shape=connector;exitX=0.16;exitY=-0.025;exitDx=0;exitDy=0;exitPerimeter=0;" edge="1" parent="1" source="P7TTwvXeHNKkOv4dfcsk-34">
          <mxGeometry width="80" relative="1" as="geometry">
            <mxPoint x="460" y="320" as="sourcePoint" />
            <mxPoint x="459" y="310" as="targetPoint" />
            <Array as="points" />
          </mxGeometry>
        </mxCell>
        <mxCell id="P7TTwvXeHNKkOv4dfcsk-94" value="" style="edgeStyle=none;orthogonalLoop=1;jettySize=auto;html=1;rounded=1;labelBackgroundColor=default;strokeColor=#000000;fontFamily=Helvetica;fontSize=11;fontColor=default;endArrow=oval;endFill=0;fillColor=none;gradientColor=default;shape=connector;exitX=0.665;exitY=-0.007;exitDx=0;exitDy=0;exitPerimeter=0;" edge="1" parent="1" source="P7TTwvXeHNKkOv4dfcsk-34">
          <mxGeometry width="80" relative="1" as="geometry">
            <mxPoint x="520" y="320" as="sourcePoint" />
            <mxPoint x="520" y="320" as="targetPoint" />
            <Array as="points" />
          </mxGeometry>
        </mxCell>
        <mxCell id="P7TTwvXeHNKkOv4dfcsk-95" value="" style="edgeStyle=none;orthogonalLoop=1;jettySize=auto;html=1;rounded=1;labelBackgroundColor=default;strokeColor=#000000;fontFamily=Helvetica;fontSize=11;fontColor=default;endArrow=oval;endFill=0;fillColor=none;gradientColor=default;shape=connector;" edge="1" parent="1">
          <mxGeometry width="80" relative="1" as="geometry">
            <mxPoint x="560" y="354.71" as="sourcePoint" />
            <mxPoint x="580" y="354.71" as="targetPoint" />
            <Array as="points" />
          </mxGeometry>
        </mxCell>
        <mxCell id="P7TTwvXeHNKkOv4dfcsk-96" value="nome" style="text;strokeColor=none;align=center;fillColor=none;html=1;verticalAlign=middle;whiteSpace=wrap;rounded=0;fontSize=11;fontFamily=Helvetica;fontColor=default;" vertex="1" parent="1">
          <mxGeometry x="360" y="550" width="60" height="30" as="geometry" />
        </mxCell>
        <mxCell id="P7TTwvXeHNKkOv4dfcsk-97" value="" style="edgeStyle=none;orthogonalLoop=1;jettySize=auto;html=1;rounded=1;labelBackgroundColor=default;strokeColor=#000000;fontFamily=Helvetica;fontSize=11;fontColor=default;endArrow=oval;endFill=0;fillColor=none;gradientColor=default;shape=connector;exitX=0.185;exitY=1.001;exitDx=0;exitDy=0;exitPerimeter=0;entryX=0.37;entryY=0.02;entryDx=0;entryDy=0;entryPerimeter=0;" edge="1" parent="1" source="P7TTwvXeHNKkOv4dfcsk-29" target="P7TTwvXeHNKkOv4dfcsk-96">
          <mxGeometry width="80" relative="1" as="geometry">
            <mxPoint x="400" y="530" as="sourcePoint" />
            <mxPoint x="480" y="530" as="targetPoint" />
            <Array as="points" />
          </mxGeometry>
        </mxCell>
        <mxCell id="P7TTwvXeHNKkOv4dfcsk-98" value="dettagli pagamento" style="whiteSpace=wrap;html=1;fontFamily=Helvetica;fontSize=11;fontColor=default;rounded=1;" vertex="1" parent="1">
          <mxGeometry x="525" y="540" width="110" height="20" as="geometry" />
        </mxCell>
        <mxCell id="P7TTwvXeHNKkOv4dfcsk-99" value="" style="edgeStyle=none;orthogonalLoop=1;jettySize=auto;html=1;rounded=1;labelBackgroundColor=default;strokeColor=#000000;fontFamily=Helvetica;fontSize=11;fontColor=default;endArrow=none;endFill=0;fillColor=none;gradientColor=default;shape=connector;exitX=0.5;exitY=1;exitDx=0;exitDy=0;entryX=0.5;entryY=0;entryDx=0;entryDy=0;" edge="1" parent="1" source="P7TTwvXeHNKkOv4dfcsk-26" target="P7TTwvXeHNKkOv4dfcsk-98">
          <mxGeometry width="80" relative="1" as="geometry">
            <mxPoint x="580" y="530" as="sourcePoint" />
            <mxPoint x="660" y="530" as="targetPoint" />
            <Array as="points" />
          </mxGeometry>
        </mxCell>
        <mxCell id="P7TTwvXeHNKkOv4dfcsk-100" value="provider" style="text;strokeColor=none;align=center;fillColor=none;html=1;verticalAlign=middle;whiteSpace=wrap;rounded=0;fontSize=11;fontFamily=Helvetica;fontColor=default;" vertex="1" parent="1">
          <mxGeometry x="520" y="580" width="60" height="30" as="geometry" />
        </mxCell>
        <mxCell id="P7TTwvXeHNKkOv4dfcsk-101" value="status" style="text;strokeColor=none;align=center;fillColor=none;html=1;verticalAlign=middle;whiteSpace=wrap;rounded=0;fontSize=11;fontFamily=Helvetica;fontColor=default;" vertex="1" parent="1">
          <mxGeometry x="570" y="580" width="60" height="30" as="geometry" />
        </mxCell>
        <mxCell id="P7TTwvXeHNKkOv4dfcsk-103" value="" style="edgeStyle=none;orthogonalLoop=1;jettySize=auto;html=1;rounded=1;labelBackgroundColor=default;strokeColor=#000000;fontFamily=Helvetica;fontSize=11;fontColor=default;endArrow=oval;endFill=0;fillColor=none;gradientColor=default;shape=connector;" edge="1" parent="1">
          <mxGeometry width="80" relative="1" as="geometry">
            <mxPoint x="540" y="560" as="sourcePoint" />
            <mxPoint x="540" y="580" as="targetPoint" />
            <Array as="points" />
          </mxGeometry>
        </mxCell>
        <mxCell id="P7TTwvXeHNKkOv4dfcsk-104" value="" style="edgeStyle=none;orthogonalLoop=1;jettySize=auto;html=1;rounded=1;labelBackgroundColor=default;strokeColor=#000000;fontFamily=Helvetica;fontSize=11;fontColor=default;endArrow=oval;endFill=0;fillColor=none;gradientColor=default;shape=connector;exitX=0.681;exitY=1.003;exitDx=0;exitDy=0;exitPerimeter=0;entryX=0.5;entryY=0;entryDx=0;entryDy=0;" edge="1" parent="1" source="P7TTwvXeHNKkOv4dfcsk-98" target="P7TTwvXeHNKkOv4dfcsk-101">
          <mxGeometry width="80" relative="1" as="geometry">
            <mxPoint x="590" y="570" as="sourcePoint" />
            <mxPoint x="670" y="570" as="targetPoint" />
            <Array as="points" />
          </mxGeometry>
        </mxCell>
        <mxCell id="P7TTwvXeHNKkOv4dfcsk-105" value="quantità" style="text;strokeColor=none;align=center;fillColor=none;html=1;verticalAlign=middle;whiteSpace=wrap;rounded=0;fontSize=11;fontFamily=Helvetica;fontColor=default;" vertex="1" parent="1">
          <mxGeometry x="220" y="430" width="60" height="30" as="geometry" />
        </mxCell>
        <mxCell id="P7TTwvXeHNKkOv4dfcsk-106" value="" style="edgeStyle=none;orthogonalLoop=1;jettySize=auto;html=1;rounded=1;labelBackgroundColor=default;strokeColor=#000000;fontFamily=Helvetica;fontSize=11;fontColor=default;endArrow=oval;endFill=0;fillColor=none;gradientColor=default;shape=connector;exitX=0.25;exitY=1;exitDx=0;exitDy=0;entryX=0.5;entryY=0;entryDx=0;entryDy=0;" edge="1" parent="1" source="P7TTwvXeHNKkOv4dfcsk-27" target="P7TTwvXeHNKkOv4dfcsk-105">
          <mxGeometry width="80" relative="1" as="geometry">
            <mxPoint x="250" y="410" as="sourcePoint" />
            <mxPoint x="330" y="410" as="targetPoint" />
            <Array as="points" />
          </mxGeometry>
        </mxCell>
        <mxCell id="P7TTwvXeHNKkOv4dfcsk-107" value="" style="edgeStyle=none;orthogonalLoop=1;jettySize=auto;html=1;rounded=1;labelBackgroundColor=default;strokeColor=#000000;fontFamily=Helvetica;fontSize=11;fontColor=default;endArrow=none;endFill=0;fillColor=none;gradientColor=default;shape=connector;exitX=0.5;exitY=0;exitDx=0;exitDy=0;entryX=0.5;entryY=1;entryDx=0;entryDy=0;" edge="1" parent="1" source="P7TTwvXeHNKkOv4dfcsk-27" target="P7TTwvXeHNKkOv4dfcsk-25">
          <mxGeometry width="80" relative="1" as="geometry">
            <mxPoint x="270" y="320" as="sourcePoint" />
            <mxPoint x="350" y="320" as="targetPoint" />
            <Array as="points" />
          </mxGeometry>
        </mxCell>
        <mxCell id="P7TTwvXeHNKkOv4dfcsk-108" value="" style="rhombus;whiteSpace=wrap;html=1;fontFamily=Helvetica;fontSize=11;fontColor=default;" vertex="1" parent="1">
          <mxGeometry x="260" y="290" width="40" height="30" as="geometry" />
        </mxCell>
        <mxCell id="P7TTwvXeHNKkOv4dfcsk-109" value="nome" style="text;strokeColor=none;align=center;fillColor=none;html=1;verticalAlign=middle;whiteSpace=wrap;rounded=0;fontSize=11;fontFamily=Helvetica;fontColor=default;" vertex="1" parent="1">
          <mxGeometry x="310" y="140" width="40" height="30" as="geometry" />
        </mxCell>
        <mxCell id="P7TTwvXeHNKkOv4dfcsk-110" value="descrizione" style="text;strokeColor=none;align=center;fillColor=none;html=1;verticalAlign=middle;whiteSpace=wrap;rounded=0;fontSize=11;fontFamily=Helvetica;fontColor=default;" vertex="1" parent="1">
          <mxGeometry x="240" y="140" width="60" height="30" as="geometry" />
        </mxCell>
        <mxCell id="P7TTwvXeHNKkOv4dfcsk-111" value="costo" style="text;strokeColor=none;align=center;fillColor=none;html=1;verticalAlign=middle;whiteSpace=wrap;rounded=0;fontSize=11;fontFamily=Helvetica;fontColor=default;" vertex="1" parent="1">
          <mxGeometry x="130" y="200" width="60" height="30" as="geometry" />
        </mxCell>
        <mxCell id="P7TTwvXeHNKkOv4dfcsk-112" value="quantità" style="text;strokeColor=none;align=center;fillColor=none;html=1;verticalAlign=middle;whiteSpace=wrap;rounded=0;fontSize=11;fontFamily=Helvetica;fontColor=default;" vertex="1" parent="1">
          <mxGeometry x="130" y="220" width="60" height="30" as="geometry" />
        </mxCell>
        <mxCell id="P7TTwvXeHNKkOv4dfcsk-113" value="" style="edgeStyle=none;orthogonalLoop=1;jettySize=auto;html=1;rounded=1;labelBackgroundColor=default;strokeColor=#000000;fontFamily=Helvetica;fontSize=11;fontColor=default;endArrow=oval;endFill=0;fillColor=none;gradientColor=default;shape=connector;exitX=0.917;exitY=-0.003;exitDx=0;exitDy=0;exitPerimeter=0;entryX=0.5;entryY=1;entryDx=0;entryDy=0;" edge="1" parent="1" source="P7TTwvXeHNKkOv4dfcsk-25" target="P7TTwvXeHNKkOv4dfcsk-109">
          <mxGeometry width="80" relative="1" as="geometry">
            <mxPoint x="240" y="190" as="sourcePoint" />
            <mxPoint x="320" y="190" as="targetPoint" />
            <Array as="points" />
          </mxGeometry>
        </mxCell>
        <mxCell id="P7TTwvXeHNKkOv4dfcsk-114" value="" style="edgeStyle=none;orthogonalLoop=1;jettySize=auto;html=1;rounded=1;labelBackgroundColor=default;strokeColor=#000000;fontFamily=Helvetica;fontSize=11;fontColor=default;endArrow=oval;endFill=0;fillColor=none;gradientColor=default;shape=connector;exitX=0.25;exitY=0;exitDx=0;exitDy=0;entryX=0.161;entryY=1.007;entryDx=0;entryDy=0;entryPerimeter=0;" edge="1" parent="1" source="P7TTwvXeHNKkOv4dfcsk-25" target="P7TTwvXeHNKkOv4dfcsk-110">
          <mxGeometry width="80" relative="1" as="geometry">
            <mxPoint x="280" y="170" as="sourcePoint" />
            <mxPoint x="360" y="170" as="targetPoint" />
            <Array as="points" />
          </mxGeometry>
        </mxCell>
        <mxCell id="P7TTwvXeHNKkOv4dfcsk-115" value="" style="edgeStyle=none;orthogonalLoop=1;jettySize=auto;html=1;rounded=1;labelBackgroundColor=default;strokeColor=#000000;fontFamily=Helvetica;fontSize=11;fontColor=default;endArrow=oval;endFill=0;fillColor=none;gradientColor=default;shape=connector;exitX=0;exitY=0.75;exitDx=0;exitDy=0;entryX=1;entryY=0.5;entryDx=0;entryDy=0;" edge="1" parent="1">
          <mxGeometry width="80" relative="1" as="geometry">
            <mxPoint x="220" y="235" as="sourcePoint" />
            <mxPoint x="195" y="235" as="targetPoint" />
            <Array as="points" />
          </mxGeometry>
        </mxCell>
        <mxCell id="P7TTwvXeHNKkOv4dfcsk-116" value="" style="edgeStyle=none;orthogonalLoop=1;jettySize=auto;html=1;rounded=1;labelBackgroundColor=default;strokeColor=#000000;fontFamily=Helvetica;fontSize=11;fontColor=default;endArrow=oval;endFill=0;fillColor=none;gradientColor=default;shape=connector;entryX=1;entryY=0.5;entryDx=0;entryDy=0;exitX=0;exitY=0.25;exitDx=0;exitDy=0;" edge="1" parent="1" source="P7TTwvXeHNKkOv4dfcsk-25" target="P7TTwvXeHNKkOv4dfcsk-111">
          <mxGeometry width="80" relative="1" as="geometry">
            <mxPoint x="110" y="104.84" as="sourcePoint" />
            <mxPoint x="140" y="104.95999999999995" as="targetPoint" />
            <Array as="points" />
          </mxGeometry>
        </mxCell>
        <mxCell id="P7TTwvXeHNKkOv4dfcsk-117" value="nome" style="text;strokeColor=none;align=center;fillColor=none;html=1;verticalAlign=middle;whiteSpace=wrap;rounded=0;fontSize=11;fontFamily=Helvetica;fontColor=default;" vertex="1" parent="1">
          <mxGeometry x="450" y="150" width="60" height="30" as="geometry" />
        </mxCell>
        <mxCell id="P7TTwvXeHNKkOv4dfcsk-118" value="descrizione" style="text;strokeColor=none;align=center;fillColor=none;html=1;verticalAlign=middle;whiteSpace=wrap;rounded=0;fontSize=11;fontFamily=Helvetica;fontColor=default;" vertex="1" parent="1">
          <mxGeometry x="510" y="150" width="60" height="30" as="geometry" />
        </mxCell>
        <mxCell id="P7TTwvXeHNKkOv4dfcsk-119" value="" style="edgeStyle=none;orthogonalLoop=1;jettySize=auto;html=1;rounded=1;labelBackgroundColor=default;strokeColor=#000000;fontFamily=Helvetica;fontSize=11;fontColor=default;endArrow=oval;endFill=1;fillColor=none;gradientColor=default;shape=connector;" edge="1" parent="1">
          <mxGeometry width="80" relative="1" as="geometry">
            <mxPoint x="470" y="200" as="sourcePoint" />
            <mxPoint x="470" y="180" as="targetPoint" />
            <Array as="points" />
          </mxGeometry>
        </mxCell>
        <mxCell id="P7TTwvXeHNKkOv4dfcsk-120" value="" style="edgeStyle=none;orthogonalLoop=1;jettySize=auto;html=1;rounded=1;labelBackgroundColor=default;strokeColor=#000000;fontFamily=Helvetica;fontSize=11;fontColor=default;endArrow=oval;endFill=0;fillColor=none;gradientColor=default;shape=connector;" edge="1" parent="1">
          <mxGeometry width="80" relative="1" as="geometry">
            <mxPoint x="520" y="200" as="sourcePoint" />
            <mxPoint x="520" y="180" as="targetPoint" />
            <Array as="points" />
          </mxGeometry>
        </mxCell>
        <mxCell id="P7TTwvXeHNKkOv4dfcsk-123" value="" style="edgeStyle=none;orthogonalLoop=1;jettySize=auto;html=1;rounded=1;labelBackgroundColor=default;strokeColor=#000000;fontFamily=Helvetica;fontSize=11;fontColor=default;endArrow=none;endFill=0;fillColor=none;gradientColor=default;shape=connector;exitX=0;exitY=0.5;exitDx=0;exitDy=0;" edge="1" parent="1" source="P7TTwvXeHNKkOv4dfcsk-122">
          <mxGeometry width="80" relative="1" as="geometry">
            <mxPoint x="150" y="220" as="sourcePoint" />
            <mxPoint x="340" y="230" as="targetPoint" />
            <Array as="points" />
          </mxGeometry>
        </mxCell>
        <mxCell id="P7TTwvXeHNKkOv4dfcsk-126" value="" style="edgeStyle=none;orthogonalLoop=1;jettySize=auto;html=1;rounded=1;labelBackgroundColor=default;strokeColor=#000000;fontFamily=Helvetica;fontSize=11;fontColor=default;endArrow=oval;endFill=1;fillColor=none;gradientColor=default;shape=connector;" edge="1" parent="1">
          <mxGeometry width="80" relative="1" as="geometry">
            <mxPoint x="570" y="380" as="sourcePoint" />
            <mxPoint x="570" y="340" as="targetPoint" />
            <Array as="points" />
          </mxGeometry>
        </mxCell>
        <mxCell id="P7TTwvXeHNKkOv4dfcsk-128" value="" style="edgeStyle=none;orthogonalLoop=1;jettySize=auto;html=1;rounded=1;labelBackgroundColor=default;strokeColor=#000000;fontFamily=Helvetica;fontSize=11;fontColor=default;endArrow=none;endFill=0;fillColor=none;gradientColor=default;shape=connector;startArrow=oval;startFill=1;" edge="1" parent="1">
          <mxGeometry width="80" relative="1" as="geometry">
            <mxPoint x="270" y="330" as="sourcePoint" />
            <mxPoint x="350" y="380" as="targetPoint" />
            <Array as="points">
              <mxPoint x="350" y="330" />
            </Array>
          </mxGeometry>
        </mxCell>
        <mxCell id="P7TTwvXeHNKkOv4dfcsk-129" value="" style="edgeStyle=none;orthogonalLoop=1;jettySize=auto;html=1;rounded=1;labelBackgroundColor=default;strokeColor=#000000;fontFamily=Helvetica;fontSize=11;fontColor=default;endArrow=oval;endFill=1;fillColor=none;gradientColor=default;shape=connector;" edge="1" parent="1">
          <mxGeometry width="80" relative="1" as="geometry">
            <mxPoint x="350" y="240" as="sourcePoint" />
            <mxPoint x="320" y="190" as="targetPoint" />
            <Array as="points">
              <mxPoint x="350" y="190" />
            </Array>
          </mxGeometry>
        </mxCell>
        <mxCell id="P7TTwvXeHNKkOv4dfcsk-130" value="carta di credito" style="whiteSpace=wrap;html=1;fontFamily=Helvetica;fontSize=11;fontColor=default;" vertex="1" parent="1">
          <mxGeometry x="740" y="200" width="120" height="60" as="geometry" />
        </mxCell>
        <mxCell id="P7TTwvXeHNKkOv4dfcsk-133" value="indirizzo" style="whiteSpace=wrap;html=1;fontFamily=Helvetica;fontSize=11;fontColor=default;" vertex="1" parent="1">
          <mxGeometry x="740" y="460" width="120" height="60" as="geometry" />
        </mxCell>
        <mxCell id="P7TTwvXeHNKkOv4dfcsk-137" value="" style="edgeStyle=none;orthogonalLoop=1;jettySize=auto;html=1;rounded=1;labelBackgroundColor=default;strokeColor=#000000;fontFamily=Helvetica;fontSize=11;fontColor=default;endArrow=none;endFill=0;fillColor=none;gradientColor=default;shape=connector;entryX=0;entryY=0.5;entryDx=0;entryDy=0;" edge="1" parent="1" target="P7TTwvXeHNKkOv4dfcsk-133">
          <mxGeometry width="80" relative="1" as="geometry">
            <mxPoint x="640" y="489.91" as="sourcePoint" />
            <mxPoint x="700" y="490" as="targetPoint" />
            <Array as="points" />
          </mxGeometry>
        </mxCell>
        <mxCell id="P7TTwvXeHNKkOv4dfcsk-138" value="spedizione" style="rhombus;whiteSpace=wrap;html=1;fontFamily=Helvetica;fontSize=11;fontColor=default;" vertex="1" parent="1">
          <mxGeometry x="660" y="460" width="60" height="60" as="geometry" />
        </mxCell>
        <mxCell id="P7TTwvXeHNKkOv4dfcsk-139" value="" style="edgeStyle=none;orthogonalLoop=1;jettySize=auto;html=1;rounded=1;labelBackgroundColor=default;strokeColor=#000000;fontFamily=Helvetica;fontSize=11;fontColor=default;endArrow=oval;endFill=0;fillColor=none;gradientColor=default;shape=connector;exitX=0.918;exitY=1.001;exitDx=0;exitDy=0;exitPerimeter=0;entryX=0.5;entryY=0;entryDx=0;entryDy=0;" edge="1" parent="1" source="P7TTwvXeHNKkOv4dfcsk-133" target="P7TTwvXeHNKkOv4dfcsk-71">
          <mxGeometry width="80" relative="1" as="geometry">
            <mxPoint x="870" y="530" as="sourcePoint" />
            <mxPoint x="950" y="530" as="targetPoint" />
            <Array as="points" />
          </mxGeometry>
        </mxCell>
        <mxCell id="P7TTwvXeHNKkOv4dfcsk-140" value="" style="edgeStyle=none;orthogonalLoop=1;jettySize=auto;html=1;rounded=1;labelBackgroundColor=default;strokeColor=#000000;fontFamily=Helvetica;fontSize=11;fontColor=default;endArrow=oval;endFill=0;fillColor=none;gradientColor=default;shape=connector;" edge="1" parent="1">
          <mxGeometry width="80" relative="1" as="geometry">
            <mxPoint x="860" y="470" as="sourcePoint" />
            <mxPoint x="890" y="470" as="targetPoint" />
            <Array as="points" />
          </mxGeometry>
        </mxCell>
        <mxCell id="P7TTwvXeHNKkOv4dfcsk-141" value="" style="edgeStyle=none;orthogonalLoop=1;jettySize=auto;html=1;rounded=1;labelBackgroundColor=default;strokeColor=#000000;fontFamily=Helvetica;fontSize=11;fontColor=default;endArrow=oval;endFill=0;fillColor=none;gradientColor=default;shape=connector;" edge="1" parent="1">
          <mxGeometry width="80" relative="1" as="geometry">
            <mxPoint x="860" y="489.85" as="sourcePoint" />
            <mxPoint x="890" y="490" as="targetPoint" />
            <Array as="points" />
          </mxGeometry>
        </mxCell>
        <mxCell id="P7TTwvXeHNKkOv4dfcsk-142" value="" style="edgeStyle=none;orthogonalLoop=1;jettySize=auto;html=1;rounded=1;labelBackgroundColor=default;strokeColor=#000000;fontFamily=Helvetica;fontSize=11;fontColor=default;endArrow=oval;endFill=0;fillColor=none;gradientColor=default;shape=connector;exitX=1.002;exitY=0.833;exitDx=0;exitDy=0;exitPerimeter=0;" edge="1" parent="1" source="P7TTwvXeHNKkOv4dfcsk-133">
          <mxGeometry width="80" relative="1" as="geometry">
            <mxPoint x="860" y="514.88" as="sourcePoint" />
            <mxPoint x="890" y="510" as="targetPoint" />
            <Array as="points" />
          </mxGeometry>
        </mxCell>
        <mxCell id="P7TTwvXeHNKkOv4dfcsk-135" value="" style="rhombus;whiteSpace=wrap;html=1;fontFamily=Helvetica;fontSize=11;fontColor=default;" vertex="1" parent="1">
          <mxGeometry x="780" y="415" width="40" height="30" as="geometry" />
        </mxCell>
        <mxCell id="P7TTwvXeHNKkOv4dfcsk-150" value="" style="edgeStyle=none;orthogonalLoop=1;jettySize=auto;html=1;rounded=1;labelBackgroundColor=default;strokeColor=#000000;fontFamily=Helvetica;fontSize=11;fontColor=default;endArrow=none;endFill=0;fillColor=none;gradientColor=default;shape=connector;exitX=0.5;exitY=0;exitDx=0;exitDy=0;entryX=0.5;entryY=1;entryDx=0;entryDy=0;" edge="1" parent="1" source="P7TTwvXeHNKkOv4dfcsk-39" target="P7TTwvXeHNKkOv4dfcsk-132">
          <mxGeometry width="80" relative="1" as="geometry">
            <mxPoint x="800" y="340" as="sourcePoint" />
            <mxPoint x="800" y="260" as="targetPoint" />
            <Array as="points" />
          </mxGeometry>
        </mxCell>
        <mxCell id="P7TTwvXeHNKkOv4dfcsk-132" value="" style="rhombus;whiteSpace=wrap;html=1;fontFamily=Helvetica;fontSize=11;fontColor=default;" vertex="1" parent="1">
          <mxGeometry x="780" y="285" width="40" height="30" as="geometry" />
        </mxCell>
        <mxCell id="P7TTwvXeHNKkOv4dfcsk-151" value="" style="rhombus;whiteSpace=wrap;html=1;fontFamily=Helvetica;fontSize=11;fontColor=default;" vertex="1" parent="1">
          <mxGeometry x="670" y="355" width="40" height="30" as="geometry" />
        </mxCell>
        <mxCell id="P7TTwvXeHNKkOv4dfcsk-152" value="" style="edgeStyle=none;orthogonalLoop=1;jettySize=auto;html=1;rounded=1;labelBackgroundColor=default;strokeColor=#000000;fontFamily=Helvetica;fontSize=11;fontColor=default;endArrow=oval;endFill=1;fillColor=none;gradientColor=default;shape=connector;" edge="1" parent="1">
          <mxGeometry width="80" relative="1" as="geometry">
            <mxPoint x="800" y="530" as="sourcePoint" />
            <mxPoint x="870" y="460" as="targetPoint" />
            <Array as="points">
              <mxPoint x="870" y="530" />
            </Array>
          </mxGeometry>
        </mxCell>
        <mxCell id="P7TTwvXeHNKkOv4dfcsk-154" value="numero" style="text;strokeColor=none;align=center;fillColor=none;html=1;verticalAlign=middle;whiteSpace=wrap;rounded=0;fontSize=11;fontFamily=Helvetica;fontColor=default;" vertex="1" parent="1">
          <mxGeometry x="590" y="415" width="60" height="30" as="geometry" />
        </mxCell>
        <mxCell id="P7TTwvXeHNKkOv4dfcsk-155" value="" style="edgeStyle=none;orthogonalLoop=1;jettySize=auto;html=1;rounded=1;labelBackgroundColor=default;strokeColor=#000000;fontFamily=Helvetica;fontSize=11;fontColor=default;endArrow=oval;endFill=0;fillColor=none;gradientColor=default;shape=connector;exitX=0.75;exitY=0;exitDx=0;exitDy=0;entryX=0.333;entryY=0.924;entryDx=0;entryDy=0;entryPerimeter=0;" edge="1" parent="1" source="P7TTwvXeHNKkOv4dfcsk-26" target="P7TTwvXeHNKkOv4dfcsk-154">
          <mxGeometry width="80" relative="1" as="geometry">
            <mxPoint x="640" y="420" as="sourcePoint" />
            <mxPoint x="720" y="420" as="targetPoint" />
            <Array as="points" />
          </mxGeometry>
        </mxCell>
        <mxCell id="P7TTwvXeHNKkOv4dfcsk-156" value="" style="edgeStyle=none;orthogonalLoop=1;jettySize=auto;html=1;rounded=1;labelBackgroundColor=default;strokeColor=#000000;fontFamily=Helvetica;fontSize=11;fontColor=default;endArrow=none;endFill=0;fillColor=none;gradientColor=default;shape=connector;exitX=0;exitY=0.5;exitDx=0;exitDy=0;" edge="1" parent="1" source="P7TTwvXeHNKkOv4dfcsk-24" target="P7TTwvXeHNKkOv4dfcsk-122">
          <mxGeometry width="80" relative="1" as="geometry">
            <mxPoint x="450" y="230" as="sourcePoint" />
            <mxPoint x="340" y="230" as="targetPoint" />
            <Array as="points" />
          </mxGeometry>
        </mxCell>
        <mxCell id="P7TTwvXeHNKkOv4dfcsk-122" value="tag" style="rhombus;whiteSpace=wrap;html=1;fontFamily=Helvetica;fontSize=11;fontColor=default;" vertex="1" parent="1">
          <mxGeometry x="370" y="215" width="50" height="30" as="geometry" />
        </mxCell>
        <mxCell id="P7TTwvXeHNKkOv4dfcsk-157" value="(1,1)" style="text;strokeColor=none;align=center;fillColor=none;html=1;verticalAlign=middle;whiteSpace=wrap;rounded=0;fontSize=11;fontFamily=Helvetica;fontColor=default;" vertex="1" parent="1">
          <mxGeometry x="350" y="210" width="30" height="20" as="geometry" />
        </mxCell>
        <mxCell id="P7TTwvXeHNKkOv4dfcsk-158" value="(0,N)" style="text;strokeColor=none;align=center;fillColor=none;html=1;verticalAlign=middle;whiteSpace=wrap;rounded=0;fontSize=11;fontFamily=Helvetica;fontColor=default;" vertex="1" parent="1">
          <mxGeometry x="410" y="205" width="50" height="30" as="geometry" />
        </mxCell>
        <mxCell id="P7TTwvXeHNKkOv4dfcsk-159" value="(1,1)" style="text;strokeColor=none;align=center;fillColor=none;html=1;verticalAlign=middle;whiteSpace=wrap;rounded=0;fontSize=11;fontFamily=Helvetica;fontColor=default;" vertex="1" parent="1">
          <mxGeometry x="290" y="305" width="30" height="25" as="geometry" />
        </mxCell>
        <mxCell id="P7TTwvXeHNKkOv4dfcsk-160" value="(0,N)" style="text;strokeColor=none;align=center;fillColor=none;html=1;verticalAlign=middle;whiteSpace=wrap;rounded=0;fontSize=11;fontFamily=Helvetica;fontColor=default;" vertex="1" parent="1">
          <mxGeometry x="270" y="260" width="60" height="30" as="geometry" />
        </mxCell>
        <mxCell id="P7TTwvXeHNKkOv4dfcsk-161" value="(1,1)" style="text;strokeColor=none;align=center;fillColor=none;html=1;verticalAlign=middle;whiteSpace=wrap;rounded=0;fontSize=11;fontFamily=Helvetica;fontColor=default;" vertex="1" parent="1">
          <mxGeometry x="335" y="330" width="60" height="30" as="geometry" />
        </mxCell>
        <mxCell id="P7TTwvXeHNKkOv4dfcsk-162" value="(0,N)" style="text;strokeColor=none;align=center;fillColor=none;html=1;verticalAlign=middle;whiteSpace=wrap;rounded=0;fontSize=11;fontFamily=Helvetica;fontColor=default;" vertex="1" parent="1">
          <mxGeometry x="395" y="340" width="60" height="30" as="geometry" />
        </mxCell>
        <mxCell id="P7TTwvXeHNKkOv4dfcsk-163" value="(1,1)" style="text;strokeColor=none;align=center;fillColor=none;html=1;verticalAlign=middle;whiteSpace=wrap;rounded=0;fontSize=11;fontFamily=Helvetica;fontColor=default;" vertex="1" parent="1">
          <mxGeometry x="630" y="340" width="60" height="30" as="geometry" />
        </mxCell>
        <mxCell id="P7TTwvXeHNKkOv4dfcsk-164" value="(0,N)" style="text;strokeColor=none;align=center;fillColor=none;html=1;verticalAlign=middle;whiteSpace=wrap;rounded=0;fontSize=11;fontFamily=Helvetica;fontColor=default;" vertex="1" parent="1">
          <mxGeometry x="690" y="340" width="60" height="30" as="geometry" />
        </mxCell>
        <mxCell id="P7TTwvXeHNKkOv4dfcsk-165" value="(0,N)" style="text;strokeColor=none;align=center;fillColor=none;html=1;verticalAlign=middle;whiteSpace=wrap;rounded=0;fontSize=11;fontFamily=Helvetica;fontColor=default;" vertex="1" parent="1">
          <mxGeometry x="790" y="400" width="60" height="20" as="geometry" />
        </mxCell>
        <mxCell id="P7TTwvXeHNKkOv4dfcsk-167" value="(0,N)" style="text;strokeColor=none;align=center;fillColor=none;html=1;verticalAlign=middle;whiteSpace=wrap;rounded=0;fontSize=11;fontFamily=Helvetica;fontColor=default;" vertex="1" parent="1">
          <mxGeometry x="800" y="440" width="40" height="20" as="geometry" />
        </mxCell>
        <mxCell id="P7TTwvXeHNKkOv4dfcsk-168" value="(1,1)" style="text;strokeColor=none;align=center;fillColor=none;html=1;verticalAlign=middle;whiteSpace=wrap;rounded=0;fontSize=11;fontFamily=Helvetica;fontColor=default;" vertex="1" parent="1">
          <mxGeometry x="635" y="460" width="40" height="20" as="geometry" />
        </mxCell>
        <mxCell id="P7TTwvXeHNKkOv4dfcsk-169" value="&lt;br&gt;(0, N)" style="text;strokeColor=none;align=center;fillColor=none;html=1;verticalAlign=middle;whiteSpace=wrap;rounded=0;fontSize=11;fontFamily=Helvetica;fontColor=default;" vertex="1" parent="1">
          <mxGeometry x="710" y="450" width="30" height="30" as="geometry" />
        </mxCell>
        <mxCell id="P7TTwvXeHNKkOv4dfcsk-173" value="numero carta" style="text;strokeColor=none;align=center;fillColor=none;html=1;verticalAlign=middle;whiteSpace=wrap;rounded=0;fontSize=11;fontFamily=Helvetica;fontColor=default;" vertex="1" parent="1">
          <mxGeometry x="720" y="150" width="100" height="30" as="geometry" />
        </mxCell>
        <mxCell id="P7TTwvXeHNKkOv4dfcsk-174" value="intestatario" style="text;strokeColor=none;align=center;fillColor=none;html=1;verticalAlign=middle;whiteSpace=wrap;rounded=0;fontSize=11;fontFamily=Helvetica;fontColor=default;" vertex="1" parent="1">
          <mxGeometry x="830" y="150" width="60" height="30" as="geometry" />
        </mxCell>
        <mxCell id="P7TTwvXeHNKkOv4dfcsk-175" value="scadenza" style="text;strokeColor=none;align=center;fillColor=none;html=1;verticalAlign=middle;whiteSpace=wrap;rounded=0;fontSize=11;fontFamily=Helvetica;fontColor=default;" vertex="1" parent="1">
          <mxGeometry x="895" y="200" width="60" height="30" as="geometry" />
        </mxCell>
        <mxCell id="P7TTwvXeHNKkOv4dfcsk-178" value="CVV" style="text;strokeColor=none;align=center;fillColor=none;html=1;verticalAlign=middle;whiteSpace=wrap;rounded=0;fontSize=11;fontFamily=Helvetica;fontColor=default;" vertex="1" parent="1">
          <mxGeometry x="882.5" y="225" width="60" height="20" as="geometry" />
        </mxCell>
        <mxCell id="P7TTwvXeHNKkOv4dfcsk-182" value="" style="edgeStyle=none;orthogonalLoop=1;jettySize=auto;html=1;rounded=1;labelBackgroundColor=default;strokeColor=#000000;fontFamily=Helvetica;fontSize=11;fontColor=default;endArrow=oval;endFill=0;fillColor=none;gradientColor=default;shape=connector;" edge="1" parent="1">
          <mxGeometry width="80" relative="1" as="geometry">
            <mxPoint x="860" y="214.56" as="sourcePoint" />
            <mxPoint x="890" y="214.56" as="targetPoint" />
            <Array as="points" />
          </mxGeometry>
        </mxCell>
        <mxCell id="P7TTwvXeHNKkOv4dfcsk-183" value="" style="edgeStyle=none;orthogonalLoop=1;jettySize=auto;html=1;rounded=1;labelBackgroundColor=default;strokeColor=#000000;fontFamily=Helvetica;fontSize=11;fontColor=default;endArrow=oval;endFill=0;fillColor=none;gradientColor=default;shape=connector;" edge="1" parent="1">
          <mxGeometry width="80" relative="1" as="geometry">
            <mxPoint x="860" y="235" as="sourcePoint" />
            <mxPoint x="890" y="235" as="targetPoint" />
            <Array as="points" />
          </mxGeometry>
        </mxCell>
        <mxCell id="P7TTwvXeHNKkOv4dfcsk-184" value="" style="edgeStyle=none;orthogonalLoop=1;jettySize=auto;html=1;rounded=1;labelBackgroundColor=default;strokeColor=#000000;fontFamily=Helvetica;fontSize=11;fontColor=default;endArrow=oval;endFill=1;fillColor=none;gradientColor=default;shape=connector;exitX=0.165;exitY=0.003;exitDx=0;exitDy=0;exitPerimeter=0;" edge="1" parent="1" source="P7TTwvXeHNKkOv4dfcsk-130">
          <mxGeometry width="80" relative="1" as="geometry">
            <mxPoint x="760" y="180" as="sourcePoint" />
            <mxPoint x="760" y="180" as="targetPoint" />
            <Array as="points" />
          </mxGeometry>
        </mxCell>
        <mxCell id="P7TTwvXeHNKkOv4dfcsk-185" value="" style="edgeStyle=none;orthogonalLoop=1;jettySize=auto;html=1;rounded=1;labelBackgroundColor=default;strokeColor=#000000;fontFamily=Helvetica;fontSize=11;fontColor=default;endArrow=oval;endFill=0;fillColor=none;gradientColor=default;shape=connector;exitX=0.92;exitY=-0.006;exitDx=0;exitDy=0;exitPerimeter=0;entryX=0.338;entryY=0.986;entryDx=0;entryDy=0;entryPerimeter=0;" edge="1" parent="1" source="P7TTwvXeHNKkOv4dfcsk-130" target="P7TTwvXeHNKkOv4dfcsk-174">
          <mxGeometry width="80" relative="1" as="geometry">
            <mxPoint x="850" y="180" as="sourcePoint" />
            <mxPoint x="930" y="180" as="targetPoint" />
            <Array as="points" />
          </mxGeometry>
        </mxCell>
        <mxCell id="P7TTwvXeHNKkOv4dfcsk-187" value="(1,1)" style="text;strokeColor=none;align=center;fillColor=none;html=1;verticalAlign=middle;whiteSpace=wrap;rounded=0;fontSize=11;fontFamily=Helvetica;fontColor=default;" vertex="1" parent="1">
          <mxGeometry x="790" y="260" width="60" height="30" as="geometry" />
        </mxCell>
        <mxCell id="P7TTwvXeHNKkOv4dfcsk-191" value="(0, 1)" style="text;strokeColor=none;align=center;fillColor=none;html=1;verticalAlign=middle;whiteSpace=wrap;rounded=0;fontSize=11;fontFamily=Helvetica;fontColor=default;" vertex="1" parent="1">
          <mxGeometry x="790" y="310" width="60" height="30" as="geometry" />
        </mxCell>
      </root>
    </mxGraphModel>
  </diagram>
</mxfile>
